<svg xmlns="http://www.w3.org/2000/svg" width="27" height="24" viewBox="0 0 27 24">
    <g fill="none" fill-rule="evenodd">
        <path stroke="#007AFF" stroke-width="1.5" d="M14.252.75H8.974c-2.908 0-3.973.276-5.04.846-1.007.54-1.799 1.33-2.338 2.339C1.026 5 .75 6.065.75 8.974v5.278c0 2.908.276 3.973.846 5.04.54 1.007 1.33 1.798 2.339 2.337 1.066.57 2.13.847 5.039.847h5.278c2.908 0 3.973-.276 5.04-.847 1.007-.539 1.798-1.33 2.337-2.338.57-1.066.847-2.13.847-5.039V8.974c0-2.908-.276-3.973-.847-5.04-.539-1.007-1.33-1.799-2.338-2.338-1.066-.57-2.13-.846-5.039-.846z"/>
        <path fill="#1C1C1E" d="M17.806 12.387H26.322000000000003V24H17.806z"/>
        <path fill="#007AFF" d="M22.452 14.71c.427 0 .774.346.774.774v1.935h1.935c.428 0 .774.347.774.775 0 .427-.346.774-.774.774l-1.935-.001v1.936c0 .428-.347.774-.774.774-.428 0-.775-.346-.775-.774v-1.936h-1.935c-.428 0-.774-.346-.774-.773 0-.428.346-.775.774-.775h1.935v-1.935c0-.428.347-.774.775-.774zm-9.29-3.702c1.71 0 3.096 1.386 3.096 3.096v1.815c0 .446-.046.608-.133.77-.087.163-.215.291-.378.379-.163.087-.325.133-.77.133L8.25 17.2c-.446 0-.608-.047-.77-.134-.164-.087-.291-.215-.379-.378-.087-.163-.133-.324-.133-.77v-1.814c0-1.71 1.386-3.095 3.095-3.095h3.098zm-1.55-6.194c1.284 0 2.323 1.04 2.323 2.323 0 1.282-1.039 2.321-2.321 2.321h-.002c-1.282 0-2.322-1.04-2.322-2.322 0-1.283 1.04-2.322 2.322-2.322z"/>
    </g>
</svg>
