<svg xmlns="http://www.w3.org/2000/svg" width="24" height="28" viewBox="0 0 24 28">
    <path fill="#F2F2F2" d="M22.565 9.785c-.123.077-3.051 1.702-3.051 5.305.138 4.109 3.695 5.55 3.756 5.55-.061.077-.537 1.963-1.947 3.94-1.119 1.703-2.361 3.42-4.247 3.42-1.794 0-2.438-1.135-4.508-1.135-2.223 0-2.852 1.135-4.554 1.135-1.886 0-3.22-1.809-4.4-3.496-1.533-2.208-2.836-5.673-2.882-9-.031-1.763.307-3.496 1.165-4.968C3.108 8.481 5.27 7.086 7.631 7.04c1.809-.061 3.419 1.242 4.523 1.242 1.058 0 3.036-1.242 5.274-1.242.966.001 3.542.292 5.137 2.745zM12.001 6.688c-.322-1.61.567-3.22 1.395-4.247 1.058-1.242 2.729-2.085 4.17-2.085.092 1.61-.491 3.189-1.533 4.339-.935 1.242-2.545 2.177-4.032 1.993z"/>
</svg>
