<svg xmlns="http://www.w3.org/2000/svg" width="20" height="21" viewBox="0 0 20 21">
    <path fill="#414347" d="M10.08 0C9.152 0 8.4.752 8.4 1.68v.22c-2.897.747-5.04 3.37-5.04 6.5v2.011c0 1.336-.274 2.648-.786 3.869h15.012c-.512-1.22-.786-2.533-.786-3.869V8.4c0-3.13-2.143-5.753-5.04-6.5v-.22c0-.928-.752-1.68-1.68-1.68zm-8.4 15.96c-.303-.004-.585.155-.737.417-.153.261-.153.585 0 .846.152.262.434.421.737.417h6.028c-.097.27-.147.554-.148.84 0 1.392 1.128 2.52 2.52 2.52 1.392 0 2.52-1.128 2.52-2.52 0-.286-.05-.57-.146-.84h6.026c.303.004.585-.155.737-.417.153-.261.153-.585 0-.846-.152-.262-.434-.421-.737-.417H1.68z"/>
</svg>
