<svg xmlns="http://www.w3.org/2000/svg" width="31" height="30" viewBox="0 0 31 30">
    <g fill="none" fill-rule="evenodd">
        <path stroke="#646971" stroke-width="1.5" d="M20.885.75H8.974c-2.908 0-3.973.276-5.04.846-1.007.54-1.799 1.33-2.338 2.339C1.026 5 .75 6.065.75 8.974v12.052c0 2.908.276 3.973.846 5.04.54 1.007 1.33 1.799 2.339 2.338 1.066.57 2.13.846 5.039.846h11.91c2.909 0 3.974-.276 5.04-.846 1.008-.54 1.8-1.33 2.338-2.339.57-1.066.847-2.13.847-5.039V8.974c0-2.908-.277-3.973-.847-5.04-.539-1.007-1.33-1.799-2.338-2.338-1.066-.57-2.131-.846-5.04-.846z" opacity=".5" transform="translate(.618)"/>
        <path fill="#646971" d="M19.586 10.464c.205-.248.595-.268.841-.041.267.206.288.577.082.824l-3.283 3.774c-.123.144-.103.391.041.515s.39.103.513-.041l3.776-4.35c.205-.248.595-.269.842-.042.266.206.287.577.082.825l-3.797 4.37c-.123.145-.102.393.041.516.144.124.39.103.513-.04L22.521 13c.205-.247.595-.268.841-.041s.287.598.082.845l-3.283 3.773c-.123.145-.103.392.04.516.144.123.39.103.514-.041l2.38-2.743c.205-.227.575-.247.821-.02.267.226.308.577.103.824L19.79 20.98c-.82.949-1.97 1.485-3.263 1.526h-.082l-1.682 1.938c-.165.186-.431.206-.616.041l-3.57-3.134c-.185-.164-.206-.433-.042-.618L12.055 19l-.02-.083c-.268-1.402.081-2.824 1.005-3.876l2.38-2.742c.205-.227.575-.247.821-.02.246.226.287.597.082.824l-1.806 2.083c-.123.144-.102.391.041.515.144.124.39.103.513-.041zm-4.433-.907c.206-.248.596-.248.842-.042.246.207.287.578.082.825l-3.632 4.165c-1.026 1.175-1.457 2.701-1.232 4.248l-1.272 1.463c-.451.516-.39 1.3.123 1.732l.903.805-.677.804c-.164.185-.431.206-.616.04l-3.55-3.113c-.185-.164-.205-.433-.041-.618l1.519-1.753-.02-.082c-.288-1.423.081-2.825.984-3.876l2.442-2.763c.205-.248.575-.248.821-.042.246.207.287.578.082.825l-1.806 2.083c-.143.165-.123.391.02.515.165.144.39.124.514-.02zm1.97.68c.206-.227.575-.247.821-.02.246.206.288.577.082.824l-.903 1.031c-.082-.165-.205-.31-.348-.433-.185-.165-.39-.268-.595-.31zm-4.576-4.206c.246-.144.554-.062.698.185l.841 1.464c.144.248.062.557-.184.701-.062.042-.165.062-.247.062-.184 0-.348-.103-.451-.268l-.841-1.443c-.144-.248-.062-.557.184-.701zm6.916.165c.144-.248.451-.33.698-.186.246.145.328.454.184.701l-.841 1.464c-.103.186-.267.268-.451.268-.103 0-.185-.02-.267-.062-.247-.144-.329-.474-.164-.721zM16.343 5c.288 0 .514.227.514.515v1.691c0 .289-.226.516-.513.516-.267 0-.513-.227-.513-.516v-1.69c0-.29.226-.516.513-.516z" transform="translate(.618)"/>
    </g>
</svg>
