<svg xmlns="http://www.w3.org/2000/svg" width="13" height="12" viewBox="0 0 13 12">
    <path fill="#FA6400" d="M2.5 0c-.18-.003-.348.092-.439.248-.09.156-.09.348 0 .504.091.156.259.25.439.248v1.187C2.28 2.074 2.033 2 1.75 2 .79 2 0 2.79 0 3.75c0 .676.44 1.2.963 1.632.522.43 1.176.793 1.822 1.1.573.273 1.127.49 1.584.658C4.976 7.963 5.5 8.5 5.5 8.5h2s.524-.537 1.13-1.36c.458-.168 1.012-.385 1.585-.658.646-.307 1.3-.67 1.822-1.1.522-.431.963-.956.963-1.632C13 2.79 12.21 2 11.25 2c-.283 0-.53.074-.75.187V1c.18.003.348-.092.439-.248.09-.156.09-.348 0-.504-.091-.156-.259-.25-.439-.248h-8zm-.75 3c.358 0 .666.314.908.745l.01.022c.167.669.44 1.316.759 1.906-.072-.033-.14-.059-.212-.093-.604-.287-1.2-.627-1.615-.97-.416-.342-.6-.66-.6-.86 0-.42.33-.75.75-.75zm9.5 0c.42 0 .75.33.75.75 0 .2-.184.518-.6.86-.415.343-1.011.683-1.615.97-.072.034-.14.06-.212.093.318-.59.592-1.237.758-1.906l.01-.022c.243-.43.55-.745.909-.745zM5 9.5c-.553 0-1 .448-1 1v.5c-.18-.003-.348.092-.439.248-.09.156-.09.348 0 .504.091.156.259.25.439.248h5c.18.003.348-.092.439-.248.09-.156.09-.348 0-.504-.091-.156-.259-.25-.439-.248v-.5c0-.552-.447-1-1-1H5z"/>
</svg>
