<svg xmlns="http://www.w3.org/2000/svg" width="33" height="30" viewBox="0 0 33 30">
    <g fill="none" fill-rule="evenodd">
        <path stroke="#646971" stroke-width="1.5" d="M23.018.75H8.974c-2.908 0-3.973.276-5.04.846-1.007.54-1.799 1.33-2.338 2.339C1.026 5 .75 6.065.75 8.974v12.052c0 2.908.276 3.973.846 5.04.54 1.007 1.33 1.799 2.339 2.338 1.066.57 2.13.846 5.039.846h14.044c2.907 0 3.972-.276 5.038-.846 1.009-.54 1.8-1.33 2.339-2.339.57-1.066.846-2.13.846-5.039V8.974c0-2.908-.276-3.973-.846-5.04-.54-1.007-1.33-1.799-2.339-2.338-1.066-.57-2.13-.846-5.038-.846z" opacity=".5" transform="translate(.65)"/>
        <path fill="#646971" fill-rule="nonzero" d="M16 12.132c.335 0 .616-.264.616-.572V9.43l-.046-1.1 1.71 1.707c.11.117.273.176.422.176.32 0 .57-.22.57-.52 0-.154-.07-.271-.188-.381l-2.64-2.388c-.156-.146-.288-.197-.445-.197-.164 0-.296.05-.453.197l-2.64 2.388c-.116.11-.187.227-.187.38 0 .301.235.52.563.52.148 0 .32-.058.43-.175l1.71-1.706-.047 1.098v2.131c0 .308.289.572.624.572zm-4.483 11.125c-1.633 0-2.453-.762-2.453-2.27v-7.164c0-1.508.82-2.27 2.453-2.27h3.678v5.398c0 .403.367.732.804.732.43 0 .797-.33.797-.732v-5.398h3.679c1.632 0 2.452.762 2.452 2.27v7.163c0 1.509-.82 2.27-2.452 2.27h-8.958z" transform="translate(.65)"/>
    </g>
</svg>
