<svg xmlns="http://www.w3.org/2000/svg" width="22" height="22" viewBox="0 0 22 22">
    <path fill="#8E8E93" d="M8.9 17.8c1.932 0 3.714-.626 5.173-1.667l5.485 5.485c.255.255.59.382.95.382.751 0 1.284-.579 1.284-1.32 0-.346-.116-.67-.37-.925l-5.451-5.463c1.145-1.504 1.828-3.367 1.828-5.392 0-4.896-4.004-8.9-8.9-8.9C4.005 0 0 4.004 0 8.9c0 4.895 4.004 8.9 8.9 8.9zm0-1.922c-3.82 0-6.979-3.16-6.979-6.978 0-3.82 3.16-6.979 6.979-6.979s6.978 3.16 6.978 6.979-3.16 6.978-6.978 6.978z" opacity=".5"/>
</svg>
