<svg xmlns="http://www.w3.org/2000/svg" width="18" height="18" viewBox="0 0 18 18">
    <path fill="#0091FF" fill-rule="evenodd" d="M12.035 8C10.672 8 10 7.337 10 5.937V2.063C10 .663 10.672 0 12.035 0h3.94C17.336 0 18 .663 18 2.063v3.874C18 7.337 17.337 8 15.974 8h-3.939zm-10 0C.663 8 0 7.337 0 5.937V2.063C0 .663.663 0 2.035 0h3.93C7.328 0 8 .663 8 2.063v3.874C8 7.337 7.328 8 5.965 8h-3.93zm0 10C.663 18 0 17.337 0 15.937v-3.874C0 10.663.663 10 2.035 10h3.93C7.328 10 8 10.663 8 12.063v3.874C8 17.337 7.328 18 5.965 18h-3.93zm10 0C10.672 18 10 17.337 10 15.937v-3.874c0-1.4.672-2.063 2.035-2.063h3.94c1.362 0 2.025.663 2.025 2.063v3.874c0 1.4-.663 2.063-2.026 2.063h-3.939z"/>
</svg>
