<svg xmlns="http://www.w3.org/2000/svg" width="17" height="12" viewBox="0 0 17 12">
    <path fill="#F7B500" fill-rule="evenodd" d="M5.769 3.947c0 1.113-.962 2.075-2.075 2.075-1.164 0-2.075-.962-2.075-2.075 0-1.164.911-2.075 2.075-2.075 1.113 0 2.075.911 2.075 2.075zm8.653 0c0 1.113-.911 2.075-2.075 2.075-1.113 0-2.024-.962-2.024-2.075 0-1.164.91-2.075 2.024-2.075 1.164 0 2.075.911 2.075 2.075zm-9.615 0c0 .607-.506 1.063-1.113 1.063s-1.113-.456-1.113-1.063.506-1.113 1.113-1.113 1.113.506 1.113 1.113zm8.653 0c0 .607-.506 1.063-1.113 1.063-.556 0-1.063-.456-1.063-1.063s.507-1.113 1.063-1.113c.607 0 1.113.506 1.113 1.113zM12.803 0c1.77 0 3.238 1.467 3.238 3.29v7.387c-.05 1.367-1.923 1.822-2.935.658l-1.923-3.29H4.91l-1.974 3.29C1.974 12.5.101 12.044 0 10.677V3.29C0 1.467 1.467 0 3.29 0h9.513z"/>
</svg>
