<svg xmlns="http://www.w3.org/2000/svg" width="16" height="12" viewBox="0 0 16 12">
    <path fill="#E02020" d="M2.727 0c-.602 0-1.09.488-1.09 1.09v2.183L0 5.455c0 .602.488 1.09 1.09 1.09.604 0 1.092-.488 1.092-1.09l1.09-2.182H4.91l-.545 2.182c0 .602.488 1.09 1.09 1.09.603 0 1.091-.488 1.091-1.09V3.273h2.182v2.182c0 .602.488 1.09 1.091 1.09s1.091-.488 1.091-1.09l-.545-2.182H12l1.09 2.182c0 .602.49 1.09 1.092 1.09.603 0 1.09-.488 1.09-1.09l-1.636-2.182V1.09c0-.603-.488-1.091-1.09-1.091H2.726zm.546 1.09c.3 0 .545.245.545.546 0 .301-.244.546-.545.546-.301 0-.546-.245-.546-.546 0-.3.245-.545.546-.545zm2.182 0c.3 0 .545.245.545.546 0 .301-.244.546-.545.546-.302 0-.546-.245-.546-.546 0-.3.244-.545.546-.545zM1.636 7.637v3.273c0 .603.489 1.091 1.091 1.091h9.818c.603 0 1.091-.488 1.091-1.09V7.635h-1.09v3.273H2.726V7.636h-1.09z"/>
</svg>
