<svg xmlns="http://www.w3.org/2000/svg" width="135" height="31" viewBox="0 0 135 31">
    <g fill="none" fill-rule="evenodd">
        <path d="M0 0H135V31H0z"/>
        <path fill="#3B3B42" fill-rule="nonzero" d="M60.675 18.759v-4.362c0-1.646-1.016-2.754-2.65-2.768-.948-.064-1.854.41-2.366 1.238-.466-.803-1.32-1.278-2.225-1.238-.787-.04-1.536.354-1.969 1.035v-.873H50v6.968h1.48V14.9c0-1.21.646-1.85 1.648-1.85 1.001 0 1.465.655 1.465 1.835v3.874h1.471V14.9c0-1.21.676-1.85 1.649-1.85s1.48.655 1.48 1.835v3.874h1.482zm21.892-6.962h-2.394v-2.11h-1.48v2.11h-1.366v1.384h1.367v3.173c0 1.617.604 2.58 2.337 2.58.647.001 1.282-.185 1.831-.539l-.422-1.297c-.393.242-.84.377-1.296.393-.732 0-.974-.465-.974-1.163V13.18h2.394l.003-1.384zm12.497-.174c-.728-.022-1.409.37-1.775 1.02v-.846h-1.451v6.962h1.465v-3.903c0-1.163.478-1.79 1.438-1.79.313-.006.625.054.917.174l.45-1.428c-.335-.124-.688-.188-1.044-.19zm-18.894.727c-.83-.51-1.783-.762-2.748-.727-1.704 0-2.812.846-2.812 2.227 0 1.137.815 1.835 2.323 2.053l.689.102c.802.116 1.184.334 1.184.727 0 .538-.534.846-1.536.846-.807.027-1.6-.23-2.25-.727l-.666 1.178c.853.617 1.876.934 2.916.904 1.944 0 3.072-.948 3.072-2.27 0-1.225-.889-1.865-2.351-2.083l-.69-.102c-.633-.087-1.142-.218-1.142-.683 0-.509.479-.814 1.283-.814.737.011 1.46.216 2.098.596l.63-1.227zm39.245-.727c-.728-.022-1.41.37-1.775 1.02v-.846h-1.451v6.962h1.465v-3.903c0-1.163.478-1.79 1.437-1.79.314-.006.626.054.917.174l.45-1.428c-.335-.124-.687-.188-1.043-.19zm-18.871 3.655c0 2.111 1.423 3.655 3.592 3.655.879.045 1.743-.252 2.421-.832l-.703-1.224c-.506.4-1.124.618-1.76.625-1.17 0-2.029-.89-2.029-2.227 0-1.338.861-2.213 2.028-2.227.637.007 1.255.226 1.761.625l.703-1.224c-.678-.58-1.542-.877-2.421-.832-2.169 0-3.592 1.544-3.592 3.655v.006zm13.72 0v-3.49H108.8v.847c-.507-.677-1.3-1.057-2.126-1.02-1.888 0-3.376 1.529-3.376 3.654 0 2.126 1.48 3.655 3.376 3.655.827.036 1.62-.344 2.126-1.02v.843h1.466v-3.469zm-5.45 0c0-1.224.773-2.227 2.041-2.227 1.213 0 2.029.962 2.029 2.227s-.816 2.227-2.029 2.227c-1.268 0-2.042-1.006-2.042-2.227zm-17.682-3.655c-1.969 0-3.353 1.486-3.353 3.655 0 2.213 1.437 3.655 3.451 3.655 1.006.037 1.99-.311 2.763-.977l-.718-1.122c-.56.462-1.252.718-1.969.727-.945 0-1.803-.451-2.014-1.704h5.002c.014-.19.028-.378.028-.582 0-2.17-1.311-3.655-3.198-3.655l.008.003zm-.028 1.355c.945 0 1.55.61 1.704 1.69h-3.49c.154-1.007.745-1.69 1.789-1.69h-.003zm36.75 2.3V9h-1.466v3.64c-.507-.676-1.3-1.056-2.127-1.02-1.887 0-3.375 1.53-3.375 3.655 0 2.126 1.48 3.655 3.375 3.655.827.036 1.62-.344 2.127-1.02v.843h1.465v-3.475zm1.712 2.838c.058 0 .116.012.17.035.05.023.097.055.137.096.04.04.07.087.093.14.045.109.045.233 0 .343-.022.052-.054.1-.093.14-.04.04-.087.072-.138.095-.053.024-.11.035-.169.035-.175.002-.335-.104-.405-.27-.045-.11-.045-.234 0-.344.044-.106.127-.191.23-.235.058-.025.12-.037.18-.035h-.005zm0 .785c.045 0 .089-.008.13-.026.038-.017.074-.042.104-.073.13-.135.13-.353 0-.488-.03-.031-.065-.056-.104-.073-.041-.018-.085-.027-.13-.026-.045 0-.09.008-.132.026-.102.045-.175.14-.197.251-.021.113.012.229.09.31.031.031.067.056.107.073.044.019.09.028.138.026h-.006zm.026-.552c.042-.003.084.009.118.035.028.023.044.058.042.095.001.032-.011.063-.034.085-.026.024-.058.038-.093.04l.13.155h-.101l-.121-.154h-.04v.154h-.084v-.407l.183-.003zm-.099.075v.11h.099c.017.006.036.006.053 0 .013-.008.02-.024.02-.04s-.007-.032-.02-.04c-.017-.006-.036-.006-.053 0l-.099-.03zm-7.085-3.146c0-1.224.773-2.227 2.042-2.227 1.212 0 2.028.962 2.028 2.227s-.816 2.227-2.028 2.227c-1.269 0-2.042-1.006-2.042-2.227zm-49.478 0v-3.49h-1.465v.847c-.507-.67-1.296-1.047-2.118-1.012-1.888 0-3.376 1.53-3.376 3.655 0 2.126 1.48 3.655 3.376 3.655.827.036 1.62-.344 2.126-1.02v.843h1.466l-.009-3.478zm-5.451 0c0-1.224.774-2.227 2.042-2.227 1.212 0 2.028.962 2.028 2.227s-.816 2.227-2.028 2.227c-1.268 0-2.042-1.003-2.042-2.227z"/>
        <g fill-rule="nonzero">
            <path fill="#FF5F00" d="M12.154 2.463H20.963V18.528000000000002H12.154z" transform="translate(11 5)"/>
            <path fill="#EB001B" d="M12.713 10.5c-.002-3.134 1.416-6.096 3.846-8.031C12.43-.823 6.503-.343 2.94 3.57c-3.561 3.914-3.561 9.949 0 13.862 3.562 3.914 9.49 4.394 13.618 1.102-2.43-1.936-3.849-4.899-3.846-8.034z" transform="translate(11 5)"/>
            <path fill="#F79E1B" d="M32.849 10.5c0 3.911-2.201 7.48-5.668 9.189-3.467 1.71-7.592 1.26-10.622-1.158 2.428-1.937 3.847-4.898 3.847-8.032 0-3.135-1.419-6.096-3.847-8.033C19.589.048 23.715-.4 27.182 1.31c3.467 1.71 5.668 5.279 5.667 9.191zM31.918 17.421v-.823h.156v-.163h-.388v.17h.156v.823l.076-.007zm.768 0v-.993h-.103l-.14.71-.14-.71h-.122v.993h.07v-.745l.129.646h.09l.13-.646v.752l.086-.007z" transform="translate(11 5)"/>
        </g>
    </g>
</svg>
