<svg xmlns="http://www.w3.org/2000/svg" width="79" height="20" viewBox="0 0 79 20">
    <g fill="none">
        <path fill="#003087" d="M15.027 1.528C14.065.46 12.321 0 10.089 0H3.618c-.456 0-.848.325-.913.76L.008 17.374C-.05 17.7.212 18 .554 18h4.001l1.003-6.185-.033.19c.073-.435.456-.76.913-.76h1.898c3.733 0 6.65-1.473 7.506-5.733.024-.127.049-.246.065-.373-.106-.055-.106-.055 0 0 .253-1.568 0-2.644-.88-3.61"/>
        <path fill="#002F86" d="M54.636 9.05h-2.083c-.197 0-.386.103-.497.263l-2.871 4.281-1.215-4.113c-.079-.256-.308-.431-.576-.431h-2.043c-.245 0-.418.247-.34.479l2.296 6.813-2.153 3.083c-.166.24 0 .575.291.575h2.083c.197 0 .379-.096.497-.264l6.91-10.111c.166-.248-.007-.575-.3-.575M40.713 13.13c-.197 1.198-1.136 2.005-2.335 2.005-.6 0-1.08-.2-1.388-.567-.308-.368-.418-.895-.324-1.47.19-1.19 1.144-2.02 2.32-2.02.591 0 1.065.199 1.38.574.316.376.442.903.347 1.478M43.6 9.05h-2.075c-.174 0-.332.127-.355.311l-.095.583-.142-.216c-.45-.663-1.451-.878-2.445-.878-2.288 0-4.245 1.757-4.623 4.217-.197 1.23.087 2.404.773 3.227.631.75 1.53 1.07 2.611 1.07 1.846 0 2.872-1.198 2.872-1.198l-.095.583c-.032.224.134.424.355.424h1.862c.3 0 .544-.216.591-.512l1.12-7.18c.04-.232-.134-.431-.354-.431m-12.433.047c-.237 1.574-1.42 1.574-2.572 1.574h-.655l.458-2.94c.024-.175.181-.31.355-.31h.3c.78 0 1.514 0 1.9.446.23.28.3.68.214 1.23M30.67 5h-4.323c-.3 0-.545.216-.592.511l-1.751 11.23c-.032.224.134.424.355.424h2.067c.292 0 .544-.216.591-.512l.474-3.027c.047-.295.3-.511.591-.511h1.373c2.848 0 4.497-1.398 4.923-4.161.197-1.206.007-2.165-.553-2.828C33.21 5.383 32.113 5 30.67 5"/>
        <path fill="#009CDE" d="M76.263 5.295l-1.792 11.1c-.032.217.135.411.358.411h1.8c.296 0 .55-.21.598-.496l1.77-10.9c.031-.216-.136-.41-.36-.41h-2.015c-.175 0-.335.124-.359.295m-5.385 7.596c-.2 1.163-1.147 1.946-2.358 1.946-.606 0-1.092-.194-1.403-.55-.31-.357-.422-.868-.326-1.427.191-1.155 1.155-1.96 2.342-1.96.598 0 1.076.193 1.394.557.319.365.446.876.35 1.434m2.917-3.96h-2.088c-.175 0-.334.123-.358.302l-.096.565-.143-.209c-.454-.643-1.466-.853-2.47-.853-2.31 0-4.286 1.706-4.668 4.093-.2 1.194.087 2.334.78 3.132.638.729 1.546 1.039 2.637 1.039 1.865 0 2.9-1.163 2.9-1.163l-.095.566c-.032.217.135.411.358.411h1.872c.303 0 .55-.21.598-.496l1.131-6.97c.04-.224-.135-.418-.358-.418m-12.556.047c-.24 1.527-1.434 1.527-2.597 1.527h-.662l.462-2.853c.024-.17.184-.302.359-.302h.303c.788 0 1.53 0 1.92.434.23.271.302.659.215 1.194M60.736 5H56.37c-.303 0-.55.21-.597.496l-1.77 10.9c-.031.216.136.41.36.41H56.6c.207 0 .39-.147.422-.349l.502-3.093c.048-.286.303-.496.598-.496h1.386c2.876 0 4.541-1.356 4.971-4.039.2-1.17.008-2.1-.557-2.744C63.3 5.372 62.193 5 60.736 5"/>
        <path fill="#003087" d="M15.027 1.528C14.065.46 12.321 0 10.089 0H3.618c-.456 0-.848.325-.913.76L.008 17.374C-.05 17.7.212 18 .554 18h4.001l1.003-6.185-.033.19c.073-.435.456-.76.913-.76h1.898c3.733 0 6.65-1.473 7.506-5.733.024-.127.049-.246.065-.373-.106-.055-.106-.055 0 0 .253-1.568 0-2.644-.88-3.61"/>
        <path fill="#002F86" d="M6.637 5.169c.04-.261.22-.475.448-.586.106-.047.228-.079.35-.079h5.08c.604 0 1.166.04 1.672.119.146.023.293.047.424.079.138.032.269.063.4.103.064.016.13.04.195.055.253.08.49.174.701.285.253-1.575 0-2.644-.88-3.617C14.063.459 12.32 0 10.084 0H3.62c-.457 0-.848.325-.913.76l-2.7 16.615c-.056.324.205.625.547.625h4.003l1.003-6.182 1.077-6.65z"/>
        <path fill="#009CDE" d="M15.306 5c-.016.118-.04.244-.063.37-.832 4.23-3.667 5.691-7.293 5.691H6.105c-.444 0-.816.323-.887.755l-.942 5.951-.27 1.69c-.047.284.175.543.468.543h3.27c.388 0 .72-.283.776-.66l.032-.165.617-3.884.04-.212c.063-.378.388-.66.776-.66h.49c3.176 0 5.655-1.282 6.383-4.977.3-1.549.143-2.838-.657-3.742-.238-.291-.539-.52-.895-.7"/>
        <path fill="#012069" d="M14.144 5.28c-.126-.036-.252-.066-.385-.095-.134-.03-.275-.052-.409-.074C12.855 5.037 12.313 5 11.732 5H6.838c-.118 0-.235.022-.338.074-.227.103-.392.303-.432.547l-1.037 6.202L5 12c.07-.407.44-.71.88-.71h1.822c3.598 0 6.41-1.374 7.235-5.351.024-.119.047-.23.063-.348-.212-.103-.432-.192-.676-.266-.062-.007-.117-.03-.18-.044"/>
    </g>
</svg>
