<svg xmlns="http://www.w3.org/2000/svg" width="20" height="24" viewBox="0 0 20 24">
    <path fill="#F2F2F2" d="M1.623.21L12 10.587l2.678-2.678c-3.66-2.22-8.56-5.198-10.764-6.537L2.437.477c-.26-.16-.54-.245-.814-.266zM.039 1.454C.02 1.567 0 1.682 0 1.805v20.504c0 .086.017.166.03.248L10.585 12 .039 1.453zm16.398 7.524L13.415 12l2.97 2.97c1.575-.953 2.665-1.616 2.786-1.689.535-.327.837-.82.828-1.36-.008-.528-.31-1.001-.824-1.292-.115-.066-1.19-.715-2.736-1.652zM12 13.414L1.654 23.76c.201-.035.402-.095.594-.211l12.377-7.51L12 13.414z"/>
</svg>
