<svg xmlns="http://www.w3.org/2000/svg" width="32" height="30" viewBox="0 0 32 30">
    <g fill="none" fill-rule="evenodd">
        <path stroke="#646971" stroke-width="1.5" d="M23.018.75H8.974c-2.908 0-3.973.276-5.04.846-1.007.54-1.799 1.33-2.338 2.339C1.026 5 .75 6.065.75 8.974v12.052c0 2.908.276 3.973.846 5.04.54 1.007 1.33 1.799 2.339 2.338 1.066.57 2.13.846 5.039.846h14.044c2.907 0 3.972-.276 5.038-.846 1.009-.54 1.8-1.33 2.339-2.339.57-1.066.846-2.13.846-5.039V8.974c0-2.908-.276-3.973-.846-5.04-.54-1.007-1.33-1.799-2.339-2.338-1.066-.57-2.13-.846-5.038-.846z" opacity=".5" transform="translate(-.004)"/>
        <path fill="#646971" fill-rule="nonzero" d="M17.162 18.5h-5.065v-3.563h1.9c.677 0 1.265-.502 1.265-1.187 0-.445-.247-.733-.633-1.188l-2.532-2.857C11.71 9.278 11.345 9 10.83 9c-.514 0-.88.278-1.266.705l-2.533 2.857c-.385.455-.633.743-.633 1.188 0 .685.588 1.188 1.267 1.188h1.899v4.75c0 .655.567 1.187 1.266 1.187h6.332c.699 0 1.266-.532 1.266-1.188 0-.655-.567-1.187-1.266-1.187zm8.231-3.563h-1.9v-4.75c0-.655-.567-1.187-1.266-1.187h-6.331c-.7 0-1.267.532-1.267 1.188 0 .655.568 1.187 1.267 1.187h5.065v3.563h-1.9c-.678 0-1.266.502-1.266 1.187 0 .445.248.733.633 1.188l2.533 2.857c.385.427.752.705 1.266.705s.88-.278 1.267-.705l2.532-2.858c.386-.454.633-.742.633-1.187 0-.685-.588-1.188-1.266-1.188z" transform="translate(-.004)"/>
    </g>
</svg>
