<svg xmlns="http://www.w3.org/2000/svg" width="56" height="18" viewBox="0 0 56 18">
    <g fill="none">
        <path fill="#00579F" d="M24.307 18L20 18 22.694 1 27 1zM41 .742C40.08.389 38.62 0 36.814 0c-4.609 0-7.854 2.373-7.874 5.765-.039 2.502 2.323 3.892 4.09 4.727 1.806.852 2.42 1.409 2.42 2.17-.019 1.166-1.46 1.704-2.803 1.704-1.864 0-2.862-.277-4.38-.926l-.614-.279L27 17.073c1.095.481 3.111.908 5.205.927 4.897 0 8.085-2.336 8.123-5.95.019-1.984-1.229-3.504-3.918-4.746-1.632-.797-2.632-1.335-2.632-2.15.02-.742.846-1.502 2.689-1.502 1.517-.037 2.632.315 3.476.667l.422.185L41 .742zM46.899 11.978c.367-.977 1.78-4.757 1.78-4.757-.019.036.366-.995.587-1.627l.311 1.464s.845 4.07 1.028 4.92h-3.706zM52.403 1h-3.45c-1.063 0-1.87.307-2.33 1.41L40 18h4.679l.935-2.55h5.725c.128.597.532 2.55.532 2.55H56L52.403 1zM16.202 1L11.76 12.605l-.486-2.354C10.452 7.535 7.875 4.585 5 3.118L9.07 18h4.798L21 1h-4.798z"/>
        <path fill="#FAA61A" d="M7.364 1H.074L0 1.334C5.687 2.708 9.453 6.02 11 10L9.415 2.392C9.155 1.334 8.353 1.035 7.365 1z"/>
    </g>
</svg>
